<svg xmlns="http://www.w3.org/2000/svg" viewBox="0 0 64 64">
  <defs>
    <linearGradient id="g" x1="0" x2="0" y1="0" y2="1">
      <stop offset="0" stop-color="#ff7a59"/>
      <stop offset="1" stop-color="#ff3d2e"/>
    </linearGradient>
  </defs>
  <path d="M32 8c8 8 10 14 10 20 0 6-4 10-10 10s-10-4-10-10c0-4 2-8 6-12-1 6 3 8 6 8 1-5-1-10-2-16z" fill="url(#g)"/>
  <circle cx="32" cy="32" r="10" fill="#ffb199" opacity="0.2"/>
  <rect x="18" y="46" width="28" height="4" rx="2" fill="#7a4b33"/>
  <rect x="18" y="46" width="28" height="4" rx="2" fill="#7a4b33" transform="rotate(20 32 48)" opacity="0.8"/>
  <rect x="18" y="46" width="28" height="4" rx="2" fill="#7a4b33" transform="rotate(-20 32 48)" opacity="0.8"/>
</svg>
